<svg width="20" height="20" viewBox="0 0 20 20" fill="none" xmlns="http://www.w3.org/2000/svg">
<path d="M18.7759 9.20835L11.1175 16.8667C10.1793 17.8049 8.90684 18.332 7.58002 18.332C6.2532 18.332 4.98072 17.8049 4.04252 16.8667C3.10432 15.9285 2.57724 14.656 2.57724 13.3292C2.57724 12.0024 3.10432 10.7299 4.04252 9.79168L11.7009 2.13335C12.3263 1.50788 13.1746 1.15649 14.0592 1.15649C14.9437 1.15649 15.7921 1.50788 16.4175 2.13335C17.043 2.75882 17.3944 3.60713 17.3944 4.49168C17.3944 5.37623 17.043 6.22455 16.4175 6.85002L8.75085 14.5083C8.43812 14.8211 8.01396 14.9968 7.57169 14.9968C7.12941 14.9968 6.70525 14.8211 6.39252 14.5083C6.07979 14.1956 5.90409 13.7715 5.90409 13.3292C5.90409 12.8869 6.07979 12.4627 6.39252 12.15L13.4675 5.08335" stroke="#373737" stroke-width="2" stroke-linecap="round" stroke-linejoin="round"/>
</svg>
