<svg width="17" height="17" viewBox="0 0 17 17" fill="none" xmlns="http://www.w3.org/2000/svg">
<path d="M13.3677 6.46838C13.3677 6.46838 13.0057 10.9583 12.7957 12.8497C12.6957 13.753 12.1377 14.2824 11.2237 14.2991C9.48431 14.3304 7.74298 14.3323 6.00431 14.2957C5.12498 14.2777 4.57631 13.7418 4.47831 12.8544C4.26698 10.9464 3.90698 6.46838 3.90698 6.46838" stroke="#F47633" stroke-linecap="round" stroke-linejoin="round"/>
<path d="M14.2898 4.31605H2.98438" stroke="#F47633" stroke-linecap="round" stroke-linejoin="round"/>
<path d="M12.1115 4.31605C11.5881 4.31605 11.1375 3.94605 11.0348 3.43338L10.8728 2.62272C10.7728 2.24872 10.4342 1.99005 10.0482 1.99005H7.22617C6.84017 1.99005 6.5015 2.24872 6.4015 2.62272L6.2395 3.43338C6.13684 3.94605 5.68617 4.31605 5.16284 4.31605" stroke="#F47633" stroke-linecap="round" stroke-linejoin="round"/>
</svg>
