<svg width="16" height="18" viewBox="0 0 16 18" fill="none" xmlns="http://www.w3.org/2000/svg">
<path d="M1 4.11111H2.55556M2.55556 4.11111H15M2.55556 4.11111V15C2.55556 15.4126 2.71944 15.8082 3.01117 16.0999C3.30289 16.3917 3.69855 16.5556 4.11111 16.5556H11.8889C12.3014 16.5556 12.6971 16.3917 12.9888 16.0999C13.2806 15.8082 13.4444 15.4126 13.4444 15V4.11111M4.88889 4.11111V2.55556C4.88889 2.143 5.05278 1.74733 5.3445 1.45561C5.63622 1.16389 6.03189 1 6.44444 1H9.55556C9.96811 1 10.3638 1.16389 10.6555 1.45561C10.9472 1.74733 11.1111 2.143 11.1111 2.55556V4.11111M6.44444 8V12.6667M9.55556 8V12.6667" stroke="#373737" stroke-width="1.5" stroke-linecap="round" stroke-linejoin="round"/>
</svg>
