<svg width="41" height="40" viewBox="0 0 41 40" fill="none" xmlns="http://www.w3.org/2000/svg">
<rect x="0.25" width="40" height="40" rx="10" fill="#E7F5FF"/>
<path d="M19.0833 11.6667H12.6666C12.1804 11.6667 11.714 11.8598 11.3702 12.2036C11.0264 12.5474 10.8333 13.0138 10.8333 13.5V26.3333C10.8333 26.8196 11.0264 27.2859 11.3702 27.6297C11.714 27.9735 12.1804 28.1667 12.6666 28.1667H25.4999C25.9861 28.1667 26.4525 27.9735 26.7963 27.6297C27.1401 27.2859 27.3333 26.8196 27.3333 26.3333V19.9167" stroke="#3B9ACD" stroke-width="1.5" stroke-linecap="round" stroke-linejoin="round"/>
<path d="M25.9583 10.2917C26.3229 9.92701 26.8175 9.72214 27.3333 9.72214C27.849 9.72214 28.3436 9.92701 28.7083 10.2917C29.0729 10.6564 29.2778 11.151 29.2778 11.6667C29.2778 12.1824 29.0729 12.677 28.7083 13.0417L19.9999 21.75L16.3333 22.6667L17.2499 19L25.9583 10.2917Z" stroke="#3B9ACD" stroke-width="1.5" stroke-linecap="round" stroke-linejoin="round"/>
</svg>
