<svg width="32" height="30" viewBox="0 0 32 30" fill="none" xmlns="http://www.w3.org/2000/svg">
<g clip-path="url(#clip0_600_2033)">
<path d="M20.0931 14.25L7.44189 12V28.6253C7.44189 29.3845 8.05262 30 8.80598 30H30.6359C31.3893 30 32 29.3845 32 28.6253V22.5L20.0931 14.25Z" fill="#185C37"/>
<path d="M20.0931 0H8.80598C8.05262 0 7.44189 0.615493 7.44189 1.37475V7.5L20.0931 15L26.7907 17.25L32 15V7.5L20.0931 0Z" fill="#21A366"/>
<path d="M7.44189 7.5H20.0931V15H7.44189V7.5Z" fill="#107C41"/>
<path opacity="0.1" d="M16.4964 6H7.44189V24.75H16.4964C17.2488 24.7475 17.8581 24.1335 17.8605 23.3753V7.37475C17.8581 6.61652 17.2488 6.00246 16.4964 6Z" fill="black"/>
<path opacity="0.2" d="M15.7522 6.75H7.44189V25.5H15.7522C16.5046 25.4975 17.1139 24.8835 17.1163 24.1253V8.12475C17.1139 7.36652 16.5046 6.75246 15.7522 6.75Z" fill="black"/>
<path opacity="0.2" d="M15.7522 6.75H7.44189V24H15.7522C16.5046 23.9975 17.1139 23.3835 17.1163 22.6253V8.12475C17.1139 7.36652 16.5046 6.75246 15.7522 6.75Z" fill="black"/>
<path opacity="0.2" d="M15.008 6.75H7.44189V24H15.008C15.7604 23.9975 16.3697 23.3835 16.3721 22.6253V8.12475C16.3697 7.36652 15.7604 6.75246 15.008 6.75Z" fill="black"/>
<path d="M1.36409 6.75H15.008C15.7614 6.75 16.3721 7.36549 16.3721 8.12475V21.8752C16.3721 22.6345 15.7614 23.25 15.008 23.25H1.36409C0.610722 23.25 0 22.6345 0 21.8753V8.12475C0 7.36549 0.610722 6.75 1.36409 6.75Z" fill="url(#paint0_linear_600_2033)"/>
<path d="M4.22473 19.4685L7.09431 14.9873L4.46511 10.5307H6.58008L8.01487 13.3807C8.14734 13.6515 8.23812 13.8525 8.28725 13.9852H8.30585C8.3986 13.7724 8.49787 13.5626 8.60352 13.356L10.1373 10.5323H12.0789L9.38267 14.9625L12.1473 19.4685H10.0815L8.42418 16.3403C8.34611 16.2072 8.27987 16.0674 8.22623 15.9225H8.20168C8.15313 16.0644 8.08871 16.2003 8.00967 16.3275L6.30325 19.4685H4.22473Z" fill="white"/>
<path d="M30.6359 0H20.093V7.5H32V1.37475C32 0.615493 31.3893 0 30.6359 0Z" fill="#33C481"/>
<path d="M20.093 15H32V22.5H20.093V15Z" fill="#107C41"/>
</g>
<defs>
<linearGradient id="paint0_linear_600_2033" x1="2.84416" y1="5.6758" x2="13.6531" y2="24.2513" gradientUnits="userSpaceOnUse">
<stop stop-color="#18884F"/>
<stop offset="0.5" stop-color="#117E43"/>
<stop offset="1" stop-color="#0B6631"/>
</linearGradient>
<clipPath id="clip0_600_2033">
<rect width="32" height="30" fill="white"/>
</clipPath>
</defs>
</svg>
