<svg width="11" height="14" viewBox="0 0 11 14" fill="none" xmlns="http://www.w3.org/2000/svg">
<path d="M6.54688 3.57812C6.54688 3.93359 6.80078 4.1875 7.15625 4.1875H10.6094V12.5156C10.6094 12.8711 10.3301 13.125 10 13.125H1.46875C1.11328 13.125 0.859375 12.8711 0.859375 12.5156V0.734375C0.859375 0.404297 1.11328 0.125 1.46875 0.125H6.54688V3.57812ZM8.07031 6.29492C8.19727 6.0918 8.04492 5.8125 7.81641 5.83789H6.92773C6.80078 5.83789 6.69922 5.88867 6.64844 5.99023C5.88672 7.4375 5.73438 7.7168 5.73438 7.7168C5.30273 6.82812 5.45508 7.23438 4.79492 5.99023C4.74414 5.88867 4.64258 5.83789 4.51562 5.83789H3.65234C3.39844 5.83789 3.24609 6.0918 3.37305 6.29492L4.92188 8.68164L3.37305 11.043C3.24609 11.2461 3.39844 11.5254 3.65234 11.5254H4.51562C4.64258 11.5254 4.74414 11.4492 4.79492 11.3477C5.48047 10.1035 5.55664 9.97656 5.73438 9.5957C5.73438 9.5957 6.14062 10.4336 6.64844 11.3477C6.69922 11.4492 6.80078 11.5 6.92773 11.5H7.81641C8.04492 11.5 8.19727 11.2461 8.07031 11.043L6.54688 8.65625L8.07031 6.29492ZM10.6094 3.22266V3.375H7.35938V0.125H7.51172C7.66406 0.125 7.81641 0.201172 7.94336 0.302734L10.4316 2.79102C10.5332 2.91797 10.6094 3.07031 10.6094 3.22266Z" fill="#20814D"/>
</svg>
