<svg width="9" height="17" viewBox="0 0 9 17" fill="none" xmlns="http://www.w3.org/2000/svg">
<path d="M1 0.15625H0V1.15625H1V0.15625Z" fill="#888888"/>
<path d="M1 3.15625H0V4.15625H1V3.15625Z" fill="#888888"/>
<path d="M1 6.15625H0V7.15625H1V6.15625Z" fill="#888888"/>
<path d="M1 9.15625H0V10.1562H1V9.15625Z" fill="#888888"/>
<path d="M1 12.1562H0V13.1562H1V12.1562Z" fill="#888888"/>
<path d="M1 15.1562H0V16.1562H1V15.1562Z" fill="#888888"/>
<path d="M5 0.15625H4V1.15625H5V0.15625Z" fill="#888888"/>
<path d="M5 3.15625H4V4.15625H5V3.15625Z" fill="#888888"/>
<path d="M5 6.15625H4V7.15625H5V6.15625Z" fill="#888888"/>
<path d="M5 9.15625H4V10.1562H5V9.15625Z" fill="#888888"/>
<path d="M5 12.1562H4V13.1562H5V12.1562Z" fill="#888888"/>
<path d="M5 15.1562H4V16.1562H5V15.1562Z" fill="#888888"/>
<path d="M9 0.15625H8V1.15625H9V0.15625Z" fill="#888888"/>
<path d="M9 3.15625H8V4.15625H9V3.15625Z" fill="#888888"/>
<path d="M9 6.15625H8V7.15625H9V6.15625Z" fill="#888888"/>
<path d="M9 9.15625H8V10.1562H9V9.15625Z" fill="#888888"/>
<path d="M9 12.1562H8V13.1562H9V12.1562Z" fill="#888888"/>
<path d="M9 15.1562H8V16.1562H9V15.1562Z" fill="#888888"/>
</svg>
