<svg width="18" height="18" viewBox="0 0 18 18" fill="none" xmlns="http://www.w3.org/2000/svg">
<g clip-path="url(#clip0_510_19117)">
<path d="M17.5 9C17.5 4.30558 13.6944 0.5 9 0.5C4.30558 0.5 0.5 4.30558 0.5 9C0.5 13.6944 4.30558 17.5 9 17.5C13.6944 17.5 17.5 13.6944 17.5 9Z" fill="#F47633"/>
<mask id="mask0_510_19117" style="mask-type:luminance" maskUnits="userSpaceOnUse" x="2" y="2" width="12" height="12">
<path d="M14 2H2V14H14V2Z" fill="white"/>
</mask>
<g mask="url(#mask0_510_19117)">
<path d="M13.2144 6.9143C13.4875 6.6412 13.4876 6.20449 13.2145 5.93139C12.9414 5.65828 12.5047 5.65828 12.2316 5.93139L7.42308 10.7399L5.8145 9.13139C5.5414 8.85828 5.10477 8.85828 4.83166 9.13139C4.55856 9.40449 4.55856 9.84114 4.83166 10.1142L6.92666 12.2092C7.19977 12.4823 7.6414 12.4823 7.9145 12.2092L13.2144 6.9143Z" fill="white" stroke="white" stroke-width="0.4"/>
</g>
<path d="M17.5 9C17.5 4.30558 13.6944 0.5 9 0.5C4.30558 0.5 0.5 4.30558 0.5 9C0.5 13.6944 4.30558 17.5 9 17.5C13.6944 17.5 17.5 13.6944 17.5 9Z" stroke="white"/>
</g>
<defs>
<clipPath id="clip0_510_19117">
<rect width="18" height="18" fill="white"/>
</clipPath>
</defs>
</svg>
