<svg width="18" height="18" viewBox="0 0 18 18" fill="none" xmlns="http://www.w3.org/2000/svg">
<path d="M9 18C13.9706 18 18 13.9706 18 9C18 4.02944 13.9706 0 9 0C4.02944 0 0 4.02944 0 9C0 13.9706 4.02944 18 9 18Z" fill="#F47633"/>
<path d="M8.09346 9.39517L6.98164 9.1293L7.38286 5.56182H11.3371V6.68813H8.52852L8.35449 8.24951C8.44795 8.19473 8.58975 8.13672 8.77988 8.07549C8.97002 8.01104 9.18271 7.97881 9.41797 7.97881C9.75957 7.97881 10.0625 8.03198 10.3268 8.13833C10.591 8.24468 10.815 8.39937 10.9987 8.60239C11.1856 8.80542 11.3274 9.05356 11.4241 9.34683C11.5208 9.64009 11.5691 9.97202 11.5691 10.3426C11.5691 10.6552 11.5208 10.9533 11.4241 11.2369C11.3274 11.5173 11.1808 11.7687 10.9842 11.991C10.7876 12.2102 10.5411 12.3826 10.2446 12.5083C9.9481 12.6339 9.59683 12.6968 9.19077 12.6968C8.88784 12.6968 8.59458 12.6517 8.31099 12.5614C8.03062 12.4712 7.77764 12.3375 7.55205 12.1602C7.32969 11.983 7.15083 11.7687 7.01548 11.5173C6.88335 11.2627 6.81406 10.9727 6.80762 10.6472H8.19014C8.20947 10.847 8.26104 11.0194 8.34482 11.1644C8.43184 11.3062 8.54624 11.4158 8.68804 11.4931C8.82983 11.5705 8.9958 11.6091 9.18594 11.6091C9.36318 11.6091 9.51465 11.5753 9.64033 11.5076C9.76602 11.4399 9.86753 11.3465 9.94487 11.2272C10.0222 11.1048 10.0786 10.963 10.1141 10.8019C10.1527 10.6375 10.1721 10.4603 10.1721 10.2701C10.1721 10.08 10.1495 9.90757 10.1044 9.75288C10.0593 9.59819 9.98999 9.46445 9.89653 9.35166C9.80308 9.23887 9.68384 9.15186 9.53882 9.09062C9.39702 9.02939 9.23105 8.99878 9.04092 8.99878C8.78311 8.99878 8.5833 9.03906 8.4415 9.11963C8.30293 9.2002 8.18691 9.29204 8.09346 9.39517Z" fill="white"/>
</svg>
